<svg xmlns="http://www.w3.org/2000/svg" width="65.266" height="65.279" viewBox="0 0 65.266 65.279"><g transform="translate(22017.438 -6167.577)"><g transform="translate(-22282.395 5813.834)"><path d="M3186.336,696.864l12.238-13.134s8.508-3.433,11.045-3.88,10.149-1.642,14.328,1.493a58.451,58.451,0,0,1,9.7,8.806c2.239,2.687,7.015,7.164,7.313,8.806a29.983,29.983,0,0,1,1.194,8.657c-.15,4.328-.3,4.179-1.194,8.209s-1.94,9.254-3.881,11.045a43,43,0,0,1-8.358,6.119c-2.537,1.194-3.582,2.687-10.6,3.582s-6.567,3.881-14.328.9-8.208-4.478-8.208-4.478-7.165,1.791-8.358,2.388-.9-2.388-.9-2.388,3.582-7.91,3.582-8.507-4.926-5.97-5.075-8.657-1.194-8.507-1.194-11.642S3186.336,696.864,3186.336,696.864Z" transform="translate(-2914.873 -322.772)" fill="#1bd741"/><g transform="translate(264.958 353.743)"><path d="M330.207,384.732a32.046,32.046,0,0,0-64.033-.585c-.015.467-.03.931-.03,1.395a31.549,31.549,0,0,0,4.589,16.425l-5.775,17.055,17.745-5.64a32.082,32.082,0,0,0,47.52-27.841C330.223,385.271,330.223,385,330.207,384.732Zm-32.025,27.539a26.83,26.83,0,0,1-14.82-4.423l-10.349,3.3,3.359-9.93a26.47,26.47,0,0,1-5.128-15.675,25.425,25.425,0,0,1,.133-2.594,26.95,26.95,0,0,1,53.654.509c.06.69.09,1.38.09,2.085A26.865,26.865,0,0,1,298.182,412.271Z" transform="translate(-264.958 -353.743)" fill="#fff" fill-rule="evenodd"/><path d="M302.286,381.57c-.8-.389-4.651-2.281-5.371-2.534-.72-.271-1.244-.391-1.769.389s-2.04,2.534-2.491,3.046-.913.584-1.709.2a21.29,21.29,0,0,1-6.315-3.871,23.235,23.235,0,0,1-4.365-5.384c-.449-.78-.045-1.2.344-1.591.361-.359.78-.916,1.187-1.365.105-.135.193-.256.284-.376a8.232,8.232,0,0,0,.494-.928,1.409,1.409,0,0,0-.058-1.365c-.2-.391-1.771-4.23-2.431-5.79-.645-1.56-1.3-1.292-1.769-1.292s-.976-.073-1.5-.073a2.911,2.911,0,0,0-2.1.973,8.733,8.733,0,0,0-2.745,6.51,9.973,9.973,0,0,0,.4,2.657,17.77,17.77,0,0,0,2.8,5.4c.389.509,5.429,8.638,13.41,11.774,8,3.106,8,2.07,9.436,1.934,1.44-.12,4.649-1.874,5.294-3.7a6.446,6.446,0,0,0,.464-3.705C303.591,382.154,303.064,381.958,302.286,381.57Z" transform="translate(-254.375 -343.35)" fill="#fff" fill-rule="evenodd"/></g></g></g></svg>